<svg id="visual" viewBox="0 0 960 540" width="960" height="740" xmlns="http://www.w3.org/2000/svg" xmlns:xlink="http://www.w3.org/1999/xlink" version="1.1"><g><g transform="translate(165 81)"><path d="M80.5 -45C96.5 -18.8 96.3 18.3 80.2 43.4C64 68.5 32 81.6 1.6 80.7C-28.8 79.8 -57.7 64.9 -72.3 40.6C-87 16.4 -87.5 -17.2 -73.1 -42.6C-58.6 -67.9 -29.3 -85 1.5 -85.8C32.3 -86.7 64.5 -71.3 80.5 -45Z" stroke="#00796B0A" fill="none" stroke-width="13"></path></g><g transform="translate(355 315)"><path d="M56.5 -31.1C70.1 -9.1 75.8 19 65.1 39.6C54.4 60.2 27.2 73.4 3.3 71.5C-20.5 69.5 -41 52.5 -54.3 30.4C-67.6 8.3 -73.8 -19 -63.6 -39.1C-53.3 -59.2 -26.7 -72.2 -2.6 -70.7C21.5 -69.2 42.9 -53.2 56.5 -31.1Z" stroke="#00796B0A" fill="none" stroke-width="13"></path></g><g transform="translate(820 51)"><path d="M43.9 -26.2C54.6 -6.7 59.5 15.2 51.2 30.9C43 46.6 21.5 56 -0.5 56.3C-22.6 56.6 -45.1 47.9 -54.5 31.6C-63.8 15.3 -59.9 -8.5 -48.6 -28.3C-37.3 -48 -18.7 -63.7 -1 -63.1C16.6 -62.5 33.2 -45.6 43.9 -26.2Z" stroke="#00796B0A" fill="none" stroke-width="13"></path></g><g transform="translate(932 533)"><path d="M47.7 -29.1C54.5 -15.8 47.6 3.9 37.3 20.8C27.1 37.7 13.6 51.8 -3.4 53.8C-20.5 55.8 -40.9 45.6 -49.2 29.8C-57.6 14 -53.8 -7.4 -43.6 -22.7C-33.3 -38 -16.7 -47 1.9 -48.1C20.5 -49.2 40.9 -42.3 47.7 -29.1Z" stroke="#00796B0A" fill="none" stroke-width="13"></path></g><g transform="translate(90 512)"><path d="M63.1 -34.2C75.5 -15.1 74.8 13.9 62.1 39.2C49.4 64.5 24.7 86.2 -1 86.7C-26.6 87.3 -53.3 66.7 -69.3 39.5C-85.3 12.2 -90.8 -21.7 -77.5 -41.4C-64.2 -61.1 -32.1 -66.6 -3.3 -64.6C25.4 -62.7 50.8 -53.3 63.1 -34.2Z" stroke="#00796B0A" fill="none" stroke-width="13"></path></g><g transform="translate(490 82)"><path d="M63.3 -39.3C75.1 -16.1 72.9 12.4 60.1 31.5C47.2 50.6 23.6 60.4 -0.5 60.7C-24.7 61 -49.3 51.8 -64.1 31.6C-79 11.4 -84 -20 -71.6 -43.5C-59.3 -67 -29.7 -82.6 -2 -81.5C25.7 -80.3 51.5 -62.5 63.3 -39.3Z" stroke="#00796B0A" fill="none" stroke-width="13"></path></g><g transform="translate(597 409)"><path d="M80.8 -50.7C92.9 -25.5 83 8.3 65.9 38C48.7 67.6 24.4 92.9 -4.1 95.3C-32.5 97.7 -65.1 77 -82.2 47.4C-99.3 17.8 -101 -20.7 -84.7 -48.3C-68.4 -75.9 -34.2 -92.5 0 -92.5C34.3 -92.6 68.6 -76 80.8 -50.7Z" stroke="#00796B0A" fill="none" stroke-width="13"></path></g></g></svg>